<svg viewBox="0 0 320 420" fill="none" xmlns="http://www.w3.org/2000/svg">
  <defs>
    <filter id="omr-shadow" x="-8%" y="-4%" width="116%" height="112%">
      <feDropShadow dx="0" dy="8" stdDeviation="12" flood-color="#1a1714" flood-opacity="0.12"/>
    </filter>
    <linearGradient id="fade-out" x1="0" y1="0" x2="0" y2="1">
      <stop offset="0" stop-color="#faf9f8" stop-opacity="0"/>
      <stop offset="1" stop-color="#faf9f8" stop-opacity="0.9"/>
    </linearGradient>
  </defs>

  <rect x="16" y="12" width="288" height="396" rx="6" fill="#faf9f8" stroke="#d1cbc5" stroke-width="1.5" filter="url(#omr-shadow)"/>

  <line x1="40" y1="12" x2="40" y2="408" stroke="#e8e4e0" stroke-width="0.5"/>
  <line x1="16" y1="80" x2="304" y2="80" stroke="#e8e4e0" stroke-width="0.5"/>

  <rect x="40" y="28" width="180" height="10" rx="2" fill="#e8e4e0"/>
  <rect x="40" y="44" width="120" height="8" rx="2" fill="#e8e4e0" opacity="0.6"/>
  <rect x="40" y="58" width="140" height="8" rx="2" fill="#e8e4e0" opacity="0.4"/>

  <text x="248" y="42" font-family="'DM Serif Display', Georgia, serif" font-size="9" fill="#d1cbc5" text-anchor="middle" letter-spacing="1">OMR</text>
  <text x="248" y="54" font-family="'Source Sans 3', sans-serif" font-size="7" fill="#d1cbc5" text-anchor="middle" letter-spacing="2" font-weight="600">REPORT</text>

  <text x="126" y="98" font-family="'Source Sans 3', sans-serif" font-size="11" fill="#7a7068" font-weight="700" text-anchor="middle">A</text>
  <text x="166" y="98" font-family="'Source Sans 3', sans-serif" font-size="11" fill="#7a7068" font-weight="700" text-anchor="middle">B</text>
  <text x="206" y="98" font-family="'Source Sans 3', sans-serif" font-size="11" fill="#7a7068" font-weight="700" text-anchor="middle">C</text>
  <text x="246" y="98" font-family="'Source Sans 3', sans-serif" font-size="11" fill="#7a7068" font-weight="700" text-anchor="middle">D</text>

  <text x="56" y="124" font-family="'Source Sans 3', sans-serif" font-size="11" fill="#968c83" text-anchor="middle">1</text>
  <circle cx="126" cy="120" r="10" stroke="#d1cbc5" stroke-width="1.5" fill="none"/>
  <circle cx="166" cy="120" r="10" fill="#D63550"/>
  <circle cx="206" cy="120" r="10" stroke="#d1cbc5" stroke-width="1.5" fill="none"/>
  <circle cx="246" cy="120" r="10" stroke="#d1cbc5" stroke-width="1.5" fill="none"/>

  <text x="56" y="160" font-family="'Source Sans 3', sans-serif" font-size="11" fill="#968c83" text-anchor="middle">2</text>
  <circle cx="126" cy="156" r="10" fill="#D63550"/>
  <circle cx="166" cy="156" r="10" stroke="#d1cbc5" stroke-width="1.5" fill="none"/>
  <circle cx="206" cy="156" r="10" stroke="#d1cbc5" stroke-width="1.5" fill="none"/>
  <circle cx="246" cy="156" r="10" stroke="#d1cbc5" stroke-width="1.5" fill="none"/>

  <text x="56" y="196" font-family="'Source Sans 3', sans-serif" font-size="11" fill="#968c83" text-anchor="middle">3</text>
  <circle cx="126" cy="192" r="10" stroke="#d1cbc5" stroke-width="1.5" fill="none"/>
  <circle cx="166" cy="192" r="10" stroke="#d1cbc5" stroke-width="1.5" fill="none"/>
  <circle cx="206" cy="192" r="10" stroke="#d1cbc5" stroke-width="1.5" fill="none"/>
  <circle cx="246" cy="192" r="10" fill="#D63550"/>

  <rect x="36" y="216" width="244" height="32" rx="4" fill="#D63550" opacity="0.06"/>
  <rect x="36" y="216" width="244" height="32" rx="4" stroke="#D63550" stroke-width="1" fill="none" opacity="0.2" stroke-dasharray="4 3"/>
  <text x="56" y="236" font-family="'Source Sans 3', sans-serif" font-size="11" fill="#D63550" font-weight="700" text-anchor="middle">4</text>
  <circle cx="126" cy="232" r="10" stroke="#D63550" stroke-width="1.5" fill="none" opacity="0.4"/>
  <circle cx="166" cy="232" r="10" stroke="#D63550" stroke-width="1.5" fill="none" opacity="0.4"/>
  <circle cx="206" cy="232" r="10" fill="#D63550"/>
  <circle cx="246" cy="232" r="10" stroke="#D63550" stroke-width="1.5" fill="none" opacity="0.4"/>
  <line x1="270" y1="232" x2="286" y2="232" stroke="#D63550" stroke-width="1.5" stroke-linecap="round"/>
  <polyline points="283,228 287,232 283,236" stroke="#D63550" stroke-width="1.5" fill="none" stroke-linecap="round" stroke-linejoin="round"/>

  <text x="56" y="272" font-family="'Source Sans 3', sans-serif" font-size="11" fill="#968c83" text-anchor="middle">5</text>
  <circle cx="126" cy="268" r="10" stroke="#d1cbc5" stroke-width="1.5" fill="none"/>
  <circle cx="166" cy="268" r="10" stroke="#d1cbc5" stroke-width="1.5" fill="none"/>
  <circle cx="206" cy="268" r="10" fill="#D63550"/>
  <circle cx="246" cy="268" r="10" stroke="#d1cbc5" stroke-width="1.5" fill="none"/>

  <text x="56" y="308" font-family="'Source Sans 3', sans-serif" font-size="11" fill="#968c83" text-anchor="middle">6</text>
  <circle cx="126" cy="304" r="10" stroke="#d1cbc5" stroke-width="1.5" fill="none"/>
  <circle cx="166" cy="304" r="10" fill="#D63550"/>
  <circle cx="206" cy="304" r="10" stroke="#d1cbc5" stroke-width="1.5" fill="none"/>
  <circle cx="246" cy="304" r="10" stroke="#d1cbc5" stroke-width="1.5" fill="none"/>

  <text x="56" y="344" font-family="'Source Sans 3', sans-serif" font-size="11" fill="#968c83" text-anchor="middle">7</text>
  <circle cx="126" cy="340" r="10" fill="#D63550"/>
  <circle cx="166" cy="340" r="10" stroke="#d1cbc5" stroke-width="1.5" fill="none"/>
  <circle cx="206" cy="340" r="10" stroke="#d1cbc5" stroke-width="1.5" fill="none"/>
  <circle cx="246" cy="340" r="10" stroke="#d1cbc5" stroke-width="1.5" fill="none"/>

  <text x="56" y="380" font-family="'Source Sans 3', sans-serif" font-size="11" fill="#968c83" text-anchor="middle" opacity="0.5">8</text>
  <circle cx="126" cy="376" r="10" stroke="#d1cbc5" stroke-width="1.5" fill="none" opacity="0.4"/>
  <circle cx="166" cy="376" r="10" stroke="#d1cbc5" stroke-width="1.5" fill="none" opacity="0.4"/>
  <circle cx="206" cy="376" r="10" stroke="#d1cbc5" stroke-width="1.5" fill="none" opacity="0.4"/>
  <circle cx="246" cy="376" r="10" stroke="#d1cbc5" stroke-width="1.5" fill="none" opacity="0.4"/>

  <rect x="16" y="370" width="288" height="38" fill="url(#fade-out)" rx="0"/>
</svg>
